<?xml version="1.0" encoding="UTF-8" standalone="no"?><!DOCTYPE svg PUBLIC "-//W3C//DTD SVG 1.1//EN" "http://www.w3.org/Graphics/SVG/1.1/DTD/svg11.dtd"><svg width="100%" height="100%" viewBox="0 0 100 100" version="1.1" xmlns="http://www.w3.org/2000/svg" xmlns:xlink="http://www.w3.org/1999/xlink" xml:space="preserve" xmlns:serif="http://www.serif.com/" style="fill-rule:evenodd;clip-rule:evenodd;stroke-linejoin:round;stroke-miterlimit:1.41421;"><path d="M38.453,26.05c18.505,0 33.53,10.732 33.53,23.95c0,13.218 -15.025,23.95 -33.53,23.95c-18.506,0 -33.53,-10.732 -33.53,-23.95c0,-13.218 15.024,-23.95 33.53,-23.95Zm0,3.445c11.026,0 19.978,9.188 19.978,20.505c0,11.317 -8.952,20.505 -19.978,20.505c-11.027,0 -19.979,-9.188 -19.979,-20.505c0,-11.317 8.952,-20.505 19.979,-20.505Zm49.439,18.334c3.966,0 7.185,3.22 7.185,7.185c0,3.966 -3.219,7.185 -7.185,7.185c-3.965,0 -7.185,-3.219 -7.185,-7.185c0,-3.965 3.22,-7.185 7.185,-7.185Z" style="fill:#131313;"/></svg>