<?xml version="1.0" encoding="UTF-8" standalone="no"?><!DOCTYPE svg PUBLIC "-//W3C//DTD SVG 1.1//EN" "http://www.w3.org/Graphics/SVG/1.1/DTD/svg11.dtd"><svg width="100%" height="100%" viewBox="0 0 100 100" version="1.1" xmlns="http://www.w3.org/2000/svg" xmlns:xlink="http://www.w3.org/1999/xlink" xml:space="preserve" xmlns:serif="http://www.serif.com/" style="fill-rule:evenodd;clip-rule:evenodd;stroke-linejoin:round;stroke-miterlimit:1.41421;"><path d="M33.931,79.732c7.186,-1.925 14.179,0.84 15.608,6.171c1.428,5.331 -3.246,11.223 -10.432,13.148c-7.185,1.925 -14.179,-0.84 -15.607,-6.171c-1.428,-5.331 3.246,-11.222 10.431,-13.148Z" style="fill:#131313;"/><rect x="45.8" y="0.856" width="4" height="86.908" style="fill:#131313;"/><path d="M49.72,0.8l0,16.972c12.069,1.479 18.951,5.935 21.656,11.935c3.983,8.837 1.83,27.371 -3.212,37.661c13.468,-18.772 9.526,-39.484 2.242,-46.537c-4.657,-4.51 -15.326,-10.617 -20.686,-20.031Z" style="fill:#131313;"/><circle cx="70" cy="85" r="6" style="fill:#131313;"/></svg>