<?xml version="1.0" encoding="UTF-8" standalone="no"?><!DOCTYPE svg PUBLIC "-//W3C//DTD SVG 1.1//EN" "http://www.w3.org/Graphics/SVG/1.1/DTD/svg11.dtd"><svg width="100%" height="100%" viewBox="0 0 100 100" version="1.1" xmlns="http://www.w3.org/2000/svg" xmlns:xlink="http://www.w3.org/1999/xlink" xml:space="preserve" xmlns:serif="http://www.serif.com/" style="fill-rule:evenodd;clip-rule:evenodd;stroke-linejoin:round;stroke-miterlimit:1.41421;"><path d="M46.931,79.732c7.186,-1.925 14.179,0.84 15.608,6.171c1.428,5.331 -3.246,11.223 -10.432,13.148c-7.185,1.925 -14.179,-0.84 -15.607,-6.171c-1.428,-5.331 3.246,-11.222 10.431,-13.148Zm0.555,2.073c5.644,-1.513 11.138,0.659 12.26,4.847c1.122,4.187 -2.55,8.814 -8.194,10.327c-5.644,1.512 -11.137,-0.66 -12.259,-4.847c-1.122,-4.188 2.549,-8.815 8.193,-10.327Z" style="fill:#131313;"/><path d="M62.8,0.856l-4,0l0,83.823c0.689,0.916 1.044,1.954 1.143,3.085l2.857,0l0,-86.908Z" style="fill:#131313;"/></svg>