<?xml version="1.0" encoding="UTF-8" standalone="no"?><!DOCTYPE svg PUBLIC "-//W3C//DTD SVG 1.1//EN" "http://www.w3.org/Graphics/SVG/1.1/DTD/svg11.dtd"><svg width="100%" height="100%" viewBox="0 0 100 100" version="1.1" xmlns="http://www.w3.org/2000/svg" xmlns:xlink="http://www.w3.org/1999/xlink" xml:space="preserve" xmlns:serif="http://www.serif.com/" style="fill-rule:evenodd;clip-rule:evenodd;stroke-linejoin:round;stroke-miterlimit:1.41421;"><path d="M39.63,32.606c-6.318,-0.18 -11.625,-5.146 -11.625,-11.52c0,-6.373 5.174,-11.547 11.547,-11.547c6.368,0 11.539,5.165 11.548,11.531l0.018,-0.018c0,0 -0.097,5.02 4.223,6.302c2.739,0.812 9.777,-8.932 11.804,-11.965l0.013,-0.022c0.579,-0.92 4.203,0.181 4.401,0.427c1.346,1.67 -13.934,60.325 -18.482,72.476c-1.03,2.752 -6.196,2.085 -8.805,0.428c8.499,-18.911 14.623,-38.228 16.755,-58.226c-6.631,1.61 -13.794,2.497 -21.397,2.134Z" style="fill:#131313;"/></svg>