<?xml version="1.0" encoding="UTF-8" standalone="no"?><!DOCTYPE svg PUBLIC "-//W3C//DTD SVG 1.1//EN" "http://www.w3.org/Graphics/SVG/1.1/DTD/svg11.dtd"><svg width="100%" height="100%" viewBox="0 0 60 100" version="1.1" xmlns="http://www.w3.org/2000/svg" xmlns:xlink="http://www.w3.org/1999/xlink" xml:space="preserve" xmlns:serif="http://www.serif.com/" style="fill-rule:evenodd;clip-rule:evenodd;stroke-linejoin:round;stroke-miterlimit:1.41421;"><path d="M40.069,29.335c0.317,-0.57 2.503,0.093 2.622,0.24c0.799,0.992 -8.277,35.833 -10.978,43.051c-0.612,1.634 -3.681,1.238 -5.231,0.254" style="fill:#131313;"/><path d="M28.356,36.636c-2.695,-0.076 -4.958,-2.194 -4.958,-4.913c0,-2.718 2.207,-4.925 4.925,-4.925c2.716,0 4.921,2.203 4.925,4.918l0.008,-0.007c0,0 -0.041,2.141 1.801,2.688c1.168,0.346 4.17,-3.81 5.035,-5.104l-1.972,6.315c-2.842,0.694 -6.503,1.184 -9.764,1.028Z" style="fill:#131313;"/><path d="M22.775,54.552c-2.695,-0.077 -4.959,-2.195 -4.959,-4.913c0,-2.719 2.207,-4.926 4.925,-4.926c2.716,0 4.922,2.204 4.926,4.919l0.007,-0.008c0,0 -0.041,2.141 1.802,2.688c1.168,0.347 4.17,-3.81 5.034,-5.103l-1.971,6.314c-2.842,0.694 -6.503,1.185 -9.764,1.029Z" style="fill:#131313;"/></svg>