<?xml version="1.0" encoding="UTF-8" standalone="no"?><!DOCTYPE svg PUBLIC "-//W3C//DTD SVG 1.1//EN" "http://www.w3.org/Graphics/SVG/1.1/DTD/svg11.dtd"><svg width="100%" height="100%" viewBox="0 0 100 100" version="1.1" xmlns="http://www.w3.org/2000/svg" xmlns:xlink="http://www.w3.org/1999/xlink" xml:space="preserve" xmlns:serif="http://www.serif.com/" style="fill-rule:evenodd;clip-rule:evenodd;stroke-linejoin:round;stroke-miterlimit:1.41421;"><path d="M46.978,26.861c-4.628,-0.131 -8.515,-3.769 -8.515,-8.437c0,-4.667 3.79,-8.457 8.458,-8.457c4.663,0 8.451,3.783 8.457,8.445l0.013,-0.013c0,0 -0.07,3.677 3.093,4.616c2.007,0.595 7.161,-6.542 8.646,-8.764l-0.006,0.019c0.649,-0.884 4.269,0.218 4.469,0.466c1.373,1.703 -14.213,61.531 -18.852,73.925c-1.05,2.807 -6.319,2.127 -8.981,0.437l10.368,-33.232c-4.875,1.188 -11.147,2.026 -16.735,1.759c-4.628,-0.131 -8.515,-3.769 -8.515,-8.437c0,-4.668 3.79,-8.457 8.458,-8.457c4.664,0 8.451,3.783 8.458,8.445l0.012,-0.013c0,0 -0.07,3.677 3.094,4.616c1.98,0.587 7.031,-6.363 8.587,-8.677l6.241,-20.003c-4.878,1.189 -11.156,2.029 -16.75,1.762Z" style="fill:#131313;"/></svg>